# xmcd CD database file
#
# Track frame offsets:
#	150
#	27823
#	59512
#	129323
#	167205
#
# Disc length: 2811 seconds
#
# Revision: 0
# Processed by: cddbd v1.5.2PL0 Copyright (c) Steve Scherf et al.
# Submitted via: CDex 1.51
#
DISCID=3c0af905
DTITLE=PAT METHENY JACK DEJONETTE HERBIE HANCICK DAVE HOLLAND - PARALLEL REALITIES LIVE CD2
DYEAR=1900
DGENRE=Jazz
TTITLE0=2 - The_Good_Life
TTITLE1=3 - Blue
TTITLE2=4 - Eye_Of_Ther_Hurricane
TTITLE3=5 - The_Bat
TTITLE4=Cantaloupe_Island
EXTD=
EXTT0=
EXTT1=
EXTT2=
EXTT3=
EXTT4=
PLAYORDER=
